

<svg width="343.2" height="87.94857369402074" viewBox="0 0 349.99999999999994 89.69114450147802" class="css-1j8o68f"><defs id="SvgjsDefs9444"></defs><g id="SvgjsG9445" featurekey="dFhhLb-0" transform="matrix(3.9167415789142503,0,0,3.9167415789142503,-3.9167415789142503,10.807964022142663)" fill="#fffdfd"><path d="M4 15 l0 5 l-3 0 l0 -14 l3 0 l0 4.92 c0.7 -0.74 1.58 -1.02 2.58 -1.02 c2.84 0 4.62 2.44 4.62 5.1 l0 5 l-3 0 l0 -5 c0 -1.36 -0.54 -2.32 -2 -2.32 c-1.44 0 -2.2 0.92 -2.2 2.32 z M20.060000000000002 15 c-0.08 -1.46 -0.74 -2.32 -2.26 -2.32 c-0.42 0 -0.78 0.06 -1.08 0.18 c-0.92 0.42 -1.26 1.2 -1.26 2.16 c0 0.32 0.04 0.62 0.14 0.88 c0.3 1.04 1.2 1.42 2.2 1.42 c1.52 0 2.26 -0.82 2.26 -2.32 z M23.86 20 l-3 0 c-0.2 -0.5 -0.38 -1 -0.5 -1.52 c-0.68 1.12 -1.72 1.62 -3 1.62 c-2.86 0 -4.9 -2.4 -4.9 -5.14 c0 -3.16 2.36 -5.06 5.34 -5.06 c3.18 0 5.18 2.04 5.26 5.1 c0.02 0.26 0.02 0.56 0.02 0.92 c0 1.4 0.22 2.8 0.78 4.08 z M32.92 16.7 l0 3 c-1.02 0.34 -2.08 0.44 -3.14 0.44 c-3.1 0 -5.3 -2.06 -5.3 -5.12 c0 -3.18 2.28 -5.12 5.3 -5.12 c1.06 0 2.12 0.1 3.14 0.44 l0 3 c-0.88 -0.46 -1.98 -0.58 -2.96 -0.58 c-0.66 0 -1.46 0.14 -1.92 0.66 c-0.42 0.42 -0.56 1.02 -0.56 1.58 c0 0.32 0.04 0.62 0.14 0.88 c0.08 0.28 0.22 0.52 0.42 0.72 c0.44 0.54 1.26 0.68 1.92 0.68 c0.88 0 2.18 -0.16 2.96 -0.58 z M40.54 10 l3 0 l0 1 c0 1.52 -0.52 2.98 -1.64 4.02 l2.64 4.98 l-3.7 0 l-3.1 -5.92 l0 5.92 l-3 0 l0 -14 l3 0 l0 7.54 l0.46 0 c1.62 0 2.34 -1.08 2.34 -2.56 l0 -0.98 z M50.900000000000006 10.34 l0 2.78 l-2.46 0 l0 6.88 l-3 0 l0 -9.98 c0 -3.32 2.44 -5.12 5.52 -5.12 c0.1 0 0.24 0 0.38 0.02 s0.3 0.06 0.44 0.08 l0 2.9 c-0.1 -0.02 -0.22 -0.04 -0.36 -0.06 s-0.26 -0.04 -0.36 -0.04 c-0.5 0 -0.9 0.06 -1.24 0.16 c-0.56 0.2 -1.06 0.58 -1.24 1.18 c-0.1 0.26 -0.14 0.56 -0.14 0.86 l0 0.34 l2.46 0 z M55.16000000000001 13.8 c0.3 0.1 0.64 0.18 1 0.22 c0.36 0.06 0.7 0.08 1.02 0.08 c0.4 0 1.42 -0.08 1.42 -0.66 c0 -0.62 -0.88 -0.64 -1.32 -0.64 c-0.88 0 -1.64 0.2 -2.12 1 z M60.82000000000001 16.88 l0 2.8 c-1.12 0.26 -2.24 0.44 -3.4 0.44 c-3.18 0 -5.54 -1.86 -5.54 -5.08 c0 -3.18 2.28 -5.14 5.3 -5.14 c2.06 0 4.44 0.98 4.44 3.32 c0 2.32 -2.52 3.18 -4.46 3.18 c-0.74 0 -1.48 -0.2 -2.16 -0.48 c0.4 1.12 1.6 1.3 2.64 1.3 c0.54 0 1.08 -0.02 1.62 -0.1 c0.5 -0.04 1.08 -0.1 1.56 -0.24 z M72.94000000000001 10 l-4.1 10 l-3 0 l-4.1 -10 l2.98 0 c0.44 1.14 0.88 2.26 1.32 3.4 c0.42 1.14 0.86 2.26 1.3 3.4 c0.44 -1.14 0.88 -2.26 1.32 -3.4 c0.42 -1.14 0.86 -2.26 1.3 -3.4 l2.98 0 z M76.08000000000001 13.8 c0.3 0.1 0.64 0.18 1 0.22 c0.36 0.06 0.7 0.08 1.02 0.08 c0.4 0 1.42 -0.08 1.42 -0.66 c0 -0.62 -0.88 -0.64 -1.32 -0.64 c-0.88 0 -1.64 0.2 -2.12 1 z M81.74000000000001 16.88 l0 2.8 c-1.12 0.26 -2.24 0.44 -3.4 0.44 c-3.18 0 -5.54 -1.86 -5.54 -5.08 c0 -3.18 2.28 -5.14 5.3 -5.14 c2.06 0 4.44 0.98 4.44 3.32 c0 2.32 -2.52 3.18 -4.46 3.18 c-0.74 0 -1.48 -0.2 -2.16 -0.48 c0.4 1.12 1.6 1.3 2.64 1.3 c0.54 0 1.08 -0.02 1.62 -0.1 c0.5 -0.04 1.08 -0.1 1.56 -0.24 z M87.02000000000001 15 l0 5 l-3 0 l0 -4.98 c0 -3.32 2.44 -5.12 5.52 -5.12 c0.1 0 0.24 0 0.38 0.02 s0.3 0.06 0.44 0.08 l0 2.9 c-0.1 -0.02 -0.22 -0.04 -0.36 -0.06 s-0.26 -0.04 -0.36 -0.04 c-0.5 0 -0.9 0.06 -1.24 0.16 c-0.56 0.2 -1.06 0.58 -1.24 1.18 c-0.1 0.26 -0.14 0.56 -0.14 0.86 z"></path></g></svg>
